<svg xmlns="http://www.w3.org/2000/svg" version="1.1" xmlns:xlink="http://www.w3.org/1999/xlink" xmlns:svgjs="http://svgjs.dev/svgjs" width="1500" height="935" viewBox="0 0 1500 935"><g transform="matrix(1,0,0,1,-0.9090909090909918,0.3785425101214628)"><svg viewBox="0 0 396 247" data-background-color="#000000" preserveAspectRatio="xMidYMid meet" height="935" width="1500" xmlns="http://www.w3.org/2000/svg" xmlns:xlink="http://www.w3.org/1999/xlink"><g id="tight-bounds" transform="matrix(1,0,0,1,0.2400000000000091,-0.09999999999999432)"><svg viewBox="0 0 395.52 247.2" height="247.2" width="395.52"><rect width="395.52" height="247.2" fill="url(#036ed4c1-3468-449c-a92e-f8138d89a6d9)" mask="url(#bc0030b4-b364-4922-bd21-fddd214b2c2b)" data-fill-palette-color="tertiary"></rect><g><svg></svg></g><g><svg viewBox="0 0 395.52 247.2" height="247.2" width="395.52"><g transform="matrix(1,0,0,1,104.20063018867924,47.215199999999996)"><svg viewBox="0 0 187.1187396226415 152.7696" height="152.7696" width="187.1187396226415"><g><svg viewBox="0 0 187.1187396226415 152.7696" height="152.7696" width="187.1187396226415"><g><svg viewBox="0 0 187.1187396226415 152.7696" height="152.7696" width="187.1187396226415"><g><svg viewBox="0 0 187.1187396226415 152.7696" height="152.7696" width="187.1187396226415"><g id="textblocktransform"><svg viewBox="0 0 187.1187396226415 152.7696" height="152.7696" width="187.1187396226415" id="textblock"><g><svg viewBox="0 0 187.1187396226415 152.7696" height="152.7696" width="187.1187396226415"><g transform="matrix(1,0,0,1,0,0)"><svg width="187.1187396226415" viewBox="-0.1 -28 38.95 31.8" height="152.7696" data-palette-color="url(#797fa70e-64f6-4c56-9b12-77c4401ee872)"></svg></g></svg></g></svg></g></svg></g></svg></g></svg></g></svg></g><path d="M109.018 41.215L109.018 0 356.218 0 356.218 247.2 109.018 247.2 109.018 205.985 122.795 205.985 122.795 233.423 342.441 233.423 342.441 13.777 122.795 13.777 122.795 41.215Z" fill="url(#036ed4c1-3468-449c-a92e-f8138d89a6d9)" stroke="transparent" data-fill-palette-color="tertiary"></path></svg></g><defs></defs><mask id="886fd185-3af2-4727-8e59-9ee976c98e70"><g id="SvgjsG3367"><svg viewBox="0 0 395.52 247.2" height="247.2" width="395.52"><g><svg></svg></g><g><svg viewBox="0 0 395.52 247.2" height="247.2" width="395.52"><g transform="matrix(1,0,0,1,104.20063018867924,47.215199999999996)"><svg viewBox="0 0 187.1187396226415 152.7696" height="152.7696" width="187.1187396226415"><g><svg viewBox="0 0 187.1187396226415 152.7696" height="152.7696" width="187.1187396226415"><g><svg viewBox="0 0 187.1187396226415 152.7696" height="152.7696" width="187.1187396226415"><g><svg viewBox="0 0 187.1187396226415 152.7696" height="152.7696" width="187.1187396226415"><g id="SvgjsG3366"><svg viewBox="0 0 187.1187396226415 152.7696" height="152.7696" width="187.1187396226415" id="SvgjsSvg3365"><g><svg viewBox="0 0 187.1187396226415 152.7696" height="152.7696" width="187.1187396226415"><g transform="matrix(1,0,0,1,0,0)"><svg width="187.1187396226415" viewBox="-0.1 -28 38.95 31.8" height="152.7696" data-palette-color="url(#797fa70e-64f6-4c56-9b12-77c4401ee872)"><path d="M0.2 3.8L0.2 3.8Q-0.1 3.8-0.1 3.4L-0.1 3.4Q-0.1 2.9 0.45 2.2L0.45 2.2Q3.3-1.05 6.98-4.25 10.65-7.45 15.25-11.1L15.25-11.1Q15.1-11.05 16.95-12.5L16.95-12.5 17.8-13.2Q15.75-13 14.23-12.85 12.7-12.7 11.7-12.55L11.7-12.55 11.6-12.55Q11.25-12.55 11-12.8 10.75-13.05 10.75-13.35L10.75-13.35Q10.75-14.05 11.5-14.15L11.5-14.15Q11.85-14.2 13.38-14.4 14.9-14.6 17.55-14.9L17.55-14.9 20.3-15.2 22.6-17.2Q24.8-19.1 26.6-20.58 28.4-22.05 30.23-23.35 32.05-24.65 34.35-26L34.35-26Q31.3-26.2 29.15-26.25 27-26.3 25.7-26.35L25.7-26.35 23-26.4Q19.45-26.5 16.88-25.43 14.3-24.35 12.9-21.3L12.9-21.3Q12.75-20.9 12.45-20.9L12.45-20.9Q11.9-20.9 11.9-21.9L11.9-21.9Q11.9-23.25 13.1-25.1L13.1-25.1Q14.95-28 24.3-28L24.3-28 26.2-28Q30-28 32.9-27.85 35.8-27.7 37.8-27.45L37.8-27.45Q38.85-27.35 38.85-26.45L38.85-26.45Q38.85-25.85 38.2-25.5L38.2-25.5Q36.4-24.6 33.8-23.03 31.2-21.45 28.4-19.55 25.6-17.65 23.1-15.6L23.1-15.6Q25.75-15.85 27.85-15.98 29.95-16.1 31.4-16.1L31.4-16.1Q31.95-16.1 31.95-15.85L31.95-15.85Q31.95-15.55 30.7-15.1L30.7-15.1Q29.3-14.6 26.7-14.25L26.7-14.25Q25.25-14.05 23.8-13.88 22.35-13.7 20.9-13.6L20.9-13.6Q20.1-12.95 19.53-12.53 18.95-12.1 18.6-11.85L18.6-11.85 17.05-10.65Q15.6-9.55 13.45-7.75 11.3-5.95 8.45-3.5L8.45-3.5 5.7-1.15Q5.9-1.2 6.23-1.25 6.55-1.3 7-1.4L7-1.4Q8.1-1.65 8.93-1.78 9.75-1.9 10.25-1.9L10.25-1.9Q11.8-1.9 13.13-1.73 14.45-1.55 15.95-1.2 17.45-0.85 19.4-0.25L19.4-0.25Q21.95 0.5 23.8 0.93 25.65 1.35 27.65 1.35L27.65 1.35Q29.3 1.35 30.58 0.13 31.85-1.1 31.85-2.75L31.85-2.75Q31.85-3.65 31.5-4.35L31.5-4.35 31.4-4.75Q31.4-5.1 31.65-5.38 31.9-5.65 32.15-5.65L32.15-5.65Q32.45-5.65 32.65-5.35L32.65-5.35Q33.4-4.1 33.4-2.75L33.4-2.75Q33.4-1.2 32.55 0.1 31.7 1.4 30.33 2.2 28.95 3 27.25 3L27.25 3Q25.1 3 23 2.63 20.9 2.25 17.9 1.5L17.9 1.5Q14.8 0.75 12.8 0.38 10.8 0 8.7 0L8.7 0Q6.9 0 4.98 0.93 3.05 1.85 0.8 3.5L0.8 3.5Q0.45 3.8 0.2 3.8Z" opacity="1" transform="matrix(1,0,0,1,0,0)" fill="white" class="wordmark-text-0" id="SvgjsPath3364"></path></svg></g></svg></g></svg></g></svg></g></svg></g></svg></g></svg></g><path d="M109.018 41.215L109.018 0 356.218 0 356.218 247.2 109.018 247.2 109.018 205.985 122.795 205.985 122.795 233.423 342.441 233.423 342.441 13.777 122.795 13.777 122.795 41.215Z" fill="black" stroke="transparent"></path></svg></g><defs><mask></mask></defs></svg><rect width="395.52" height="247.2" fill="black" stroke="none" visibility="hidden"></rect></g></mask><linearGradient x1="0" x2="1" y1="0.548" y2="0.55" id="797fa70e-64f6-4c56-9b12-77c4401ee872"><stop stop-color="#ff6cab" offset="0"></stop><stop stop-color="#7366ff" offset="1"></stop></linearGradient><rect width="395.52" height="247.2" fill="url(#797fa70e-64f6-4c56-9b12-77c4401ee872)" mask="url(#886fd185-3af2-4727-8e59-9ee976c98e70)" data-fill-palette-color="primary"></rect><mask id="bc0030b4-b364-4922-bd21-fddd214b2c2b"><g id="SvgjsG3390"><svg viewBox="0 0 395.52 247.2" height="247.2" width="395.52"><g><svg></svg></g><g><svg viewBox="0 0 395.52 247.2" height="247.2" width="395.52"><g transform="matrix(1,0,0,1,104.20063018867924,47.215199999999996)"><svg viewBox="0 0 187.1187396226415 152.7696" height="152.7696" width="187.1187396226415"><g><svg viewBox="0 0 187.1187396226415 152.7696" height="152.7696" width="187.1187396226415"><g><svg viewBox="0 0 187.1187396226415 152.7696" height="152.7696" width="187.1187396226415"><g><svg viewBox="0 0 187.1187396226415 152.7696" height="152.7696" width="187.1187396226415"><g id="SvgjsG3389"><svg viewBox="0 0 187.1187396226415 152.7696" height="152.7696" width="187.1187396226415" id="SvgjsSvg3388"><g><svg viewBox="0 0 187.1187396226415 152.7696" height="152.7696" width="187.1187396226415"><g transform="matrix(1,0,0,1,0,0)"><svg width="187.1187396226415" viewBox="-0.1 -28 38.95 31.8" height="152.7696" data-palette-color="url(#797fa70e-64f6-4c56-9b12-77c4401ee872)"></svg></g></svg></g></svg></g></svg></g></svg></g></svg></g></svg></g><path d="M109.018 41.215L109.018 0 356.218 0 356.218 247.2 109.018 247.2 109.018 205.985 122.795 205.985 122.795 233.423 342.441 233.423 342.441 13.777 122.795 13.777 122.795 41.215Z" fill="white" stroke="transparent"></path></svg></g><defs><mask></mask></defs><mask><g id="SvgjsG3387"><svg viewBox="0 0 395.52 247.2" height="247.2" width="395.52"><g><svg></svg></g><g><svg viewBox="0 0 395.52 247.2" height="247.2" width="395.52"><g transform="matrix(1,0,0,1,104.20063018867924,47.215199999999996)"><svg viewBox="0 0 187.1187396226415 152.7696" height="152.7696" width="187.1187396226415"><g><svg viewBox="0 0 187.1187396226415 152.7696" height="152.7696" width="187.1187396226415"><g><svg viewBox="0 0 187.1187396226415 152.7696" height="152.7696" width="187.1187396226415"><g><svg viewBox="0 0 187.1187396226415 152.7696" height="152.7696" width="187.1187396226415"><g id="SvgjsG3386"><svg viewBox="0 0 187.1187396226415 152.7696" height="152.7696" width="187.1187396226415" id="SvgjsSvg3385"><g><svg viewBox="0 0 187.1187396226415 152.7696" height="152.7696" width="187.1187396226415"><g transform="matrix(1,0,0,1,0,0)"><svg width="187.1187396226415" viewBox="-0.1 -28 38.95 31.8" height="152.7696" data-palette-color="url(#797fa70e-64f6-4c56-9b12-77c4401ee872)"><path d="M0.2 3.8L0.2 3.8Q-0.1 3.8-0.1 3.4L-0.1 3.4Q-0.1 2.9 0.45 2.2L0.45 2.2Q3.3-1.05 6.98-4.25 10.65-7.45 15.25-11.1L15.25-11.1Q15.1-11.05 16.95-12.5L16.95-12.5 17.8-13.2Q15.75-13 14.23-12.85 12.7-12.7 11.7-12.55L11.7-12.55 11.6-12.55Q11.25-12.55 11-12.8 10.75-13.05 10.75-13.35L10.75-13.35Q10.75-14.05 11.5-14.15L11.5-14.15Q11.85-14.2 13.38-14.4 14.9-14.6 17.55-14.9L17.55-14.9 20.3-15.2 22.6-17.2Q24.8-19.1 26.6-20.58 28.4-22.05 30.23-23.35 32.05-24.65 34.35-26L34.35-26Q31.3-26.2 29.15-26.25 27-26.3 25.7-26.35L25.7-26.35 23-26.4Q19.45-26.5 16.88-25.43 14.3-24.35 12.9-21.3L12.9-21.3Q12.75-20.9 12.45-20.9L12.45-20.9Q11.9-20.9 11.9-21.9L11.9-21.9Q11.9-23.25 13.1-25.1L13.1-25.1Q14.95-28 24.3-28L24.3-28 26.2-28Q30-28 32.9-27.85 35.8-27.7 37.8-27.45L37.8-27.45Q38.85-27.35 38.85-26.45L38.85-26.45Q38.85-25.85 38.2-25.5L38.2-25.5Q36.4-24.6 33.8-23.03 31.2-21.45 28.4-19.55 25.6-17.65 23.1-15.6L23.1-15.6Q25.75-15.85 27.85-15.98 29.95-16.1 31.4-16.1L31.4-16.1Q31.95-16.1 31.95-15.85L31.95-15.85Q31.95-15.55 30.7-15.1L30.7-15.1Q29.3-14.6 26.7-14.25L26.7-14.25Q25.25-14.05 23.8-13.88 22.35-13.7 20.9-13.6L20.9-13.6Q20.1-12.95 19.53-12.53 18.95-12.1 18.6-11.85L18.6-11.85 17.05-10.65Q15.6-9.55 13.45-7.75 11.3-5.95 8.45-3.5L8.45-3.5 5.7-1.15Q5.9-1.2 6.23-1.25 6.55-1.3 7-1.4L7-1.4Q8.1-1.65 8.93-1.78 9.75-1.9 10.25-1.9L10.25-1.9Q11.8-1.9 13.13-1.73 14.45-1.55 15.95-1.2 17.45-0.85 19.4-0.25L19.4-0.25Q21.95 0.5 23.8 0.93 25.65 1.35 27.65 1.35L27.65 1.35Q29.3 1.35 30.58 0.13 31.85-1.1 31.85-2.75L31.85-2.75Q31.85-3.65 31.5-4.35L31.5-4.35 31.4-4.75Q31.4-5.1 31.65-5.38 31.9-5.65 32.15-5.65L32.15-5.65Q32.45-5.65 32.65-5.35L32.65-5.35Q33.4-4.1 33.4-2.75L33.4-2.75Q33.4-1.2 32.55 0.1 31.7 1.4 30.33 2.2 28.95 3 27.25 3L27.25 3Q25.1 3 23 2.63 20.9 2.25 17.9 1.5L17.9 1.5Q14.8 0.75 12.8 0.38 10.8 0 8.7 0L8.7 0Q6.9 0 4.98 0.93 3.05 1.85 0.8 3.5L0.8 3.5Q0.45 3.8 0.2 3.8Z" opacity="1" transform="matrix(1,0,0,1,0,0)" fill="black" class="wordmark-text-0" id="SvgjsPath3384"></path></svg></g></svg></g></svg></g></svg></g></svg></g></svg></g></svg></g><path d="M109.018 41.215L109.018 0 356.218 0 356.218 247.2 109.018 247.2 109.018 205.985 122.795 205.985 122.795 233.423 342.441 233.423 342.441 13.777 122.795 13.777 122.795 41.215Z" fill="black" stroke="transparent"></path></svg></g><defs><mask></mask></defs></svg><rect width="395.52" height="247.2" fill="black" stroke="none" visibility="hidden"></rect></g></mask></svg><rect width="395.52" height="247.2" fill="black" stroke="none" visibility="hidden"></rect></g></mask><linearGradient x1="0" x2="1" y1="0.548" y2="0.55" id="036ed4c1-3468-449c-a92e-f8138d89a6d9"><stop stop-color="#ff6cab" offset="0"></stop><stop stop-color="#7366ff" offset="1"></stop></linearGradient></svg><rect width="395.52" height="247.2" fill="none" stroke="none" visibility="hidden"></rect></g></svg></g></svg>